<svg width="64" height="64" viewBox="0 0 64 64" fill="none" xmlns="http://www.w3.org/2000/svg">
<path d="M33 39H35V44H33V39Z" fill="white"/>
<path d="M29 39H31V44H29V39Z" fill="white"/>
<path d="M25 39H27V44H25V39Z" fill="white"/>
<path d="M21 39H23V44H21V39Z" fill="white"/>
<path d="M13 39H15V44H13V39Z" fill="white"/>
<path d="M9 39H11V44H9V39Z" fill="white"/>
<path d="M53.75 58C52.195 58 51.4595 57.5942 50.6077 57.125C49.6525 56.598 48.5703 56 46.4995 56C44.4288 56 43.3467 56.5974 42.3915 57.125C41.5399 57.5949 40.804 58 39.2494 58C37.6948 58 36.9591 57.5942 36.1075 57.125C35.1524 56.598 34.07 56 31.9995 56C29.929 56 28.8469 56.5974 27.8918 57.125C27.0401 57.5949 26.3049 58 24.7499 58C23.1949 58 22.4596 57.5942 21.6081 57.125C20.6529 56.598 19.5706 56 17.5001 56C15.4296 56 14.3473 56.5974 13.3921 57.125C12.5405 57.5949 11.8046 58 10.2501 58C8.69563 58 7.96 57.5942 7.1085 57.125C6.15325 56.598 5.071 56 3.0005 56V58C4.55538 58 5.29075 58.4058 6.14238 58.875C7.0975 59.402 8.17988 60 10.2501 60C12.3204 60 13.403 59.4026 14.3581 58.875C15.2098 58.4051 15.9456 58 17.5001 58C19.0546 58 19.7904 58.4058 20.642 58.875C21.5971 59.402 22.6795 60 24.7499 60C26.8203 60 27.9026 59.4026 28.8579 58.875C29.7094 58.4051 30.4448 58 31.9995 58C33.5543 58 34.2899 58.4058 35.1415 58.875C36.0968 59.402 37.179 60 39.2494 60C41.3198 60 42.4024 59.4026 43.3575 58.875C44.2091 58.4051 44.945 58 46.4995 58C48.054 58 48.79 58.4058 49.6418 58.875C50.597 59.402 51.6799 60 53.75 60C55.8201 60 56.903 59.4026 57.8582 58.875C58.71 58.4051 59.4458 58 61.0005 58V56C58.9303 56 57.8475 56.5974 56.8923 57.125C56.04 57.5942 55.3046 58 53.75 58Z" fill="white"/>
<path d="M43 54H45V47C45 46.7348 44.8946 46.4804 44.7071 46.2929C44.5196 46.1054 44.2652 46 44 46H39V36C39 35.7348 38.8946 35.4804 38.7071 35.2929C38.5196 35.1054 38.2652 35 38 35H34V25C34 24.7348 33.8946 24.4804 33.7071 24.2929C33.5196 24.1054 33.2652 24 33 24H9C8.73478 24 8.48043 24.1054 8.29289 24.2929C8.10536 24.4804 8 24.7348 8 25V35H6C5.73478 35 5.48043 35.1054 5.29289 35.2929C5.10536 35.4804 5 35.7348 5 36V46H3V48H43V54ZM37 46H19V37H37V46ZM32 35H22V26H32V35ZM10 26H20V35H10V26ZM7 37H17V46H7V37Z" fill="white"/>
<path d="M12 28H14V33H12V28Z" fill="white"/>
<path d="M16 28H18V33H16V28Z" fill="white"/>
<path d="M24 28H26V33H24V28Z" fill="white"/>
<path d="M28 28H30V33H28V28Z" fill="white"/>
<path d="M9 17H12C12.1313 17 12.2614 16.9741 12.3827 16.9239C12.504 16.8736 12.6143 16.8 12.7071 16.7071L14.4143 15H15V22H17V15H21V22H23V15H24C24.2652 15 24.5196 14.8946 24.7071 14.7071C24.8946 14.5196 25 14.2652 25 14V13H52V22H50V24H52V26C52 26.2652 52.1054 26.5196 52.2929 26.7071C52.4804 26.8946 52.7348 27 53 27C53.1978 27 53.3911 27.0587 53.5556 27.1685C53.72 27.2784 53.8482 27.4346 53.9239 27.6173C53.9996 27.8 54.0194 28.0011 53.9808 28.1951C53.9422 28.3891 53.847 28.5673 53.7071 28.7071C53.5673 28.847 53.3891 28.9422 53.1951 28.9808C53.0011 29.0194 52.8 28.9996 52.6173 28.9239C52.4346 28.8482 52.2784 28.72 52.1685 28.5556C52.0586 28.3911 52 28.1978 52 28H50C50 28.55 50.1513 29.0894 50.4372 29.5592C50.723 30.0291 51.1326 30.4113 51.621 30.6641C52.1095 30.9169 52.658 31.0306 53.2067 30.9927C53.7554 30.9548 54.2831 30.7668 54.7321 30.4492C55.1812 30.1317 55.5343 29.6968 55.7529 29.1921C55.9715 28.6874 56.0471 28.1324 55.9715 27.5876C55.896 27.0428 55.6721 26.5293 55.3244 26.1032C54.9767 25.6771 54.5185 25.3547 54 25.1714V24H56V22H54V13H56C56.1857 13 56.3678 12.9483 56.5257 12.8507C56.6837 12.753 56.8114 12.6133 56.8944 12.4472C56.9775 12.2811 57.0126 12.0952 56.996 11.9102C56.9793 11.7252 56.9114 11.5486 56.8 11.4L53.8 7.4C53.7069 7.2758 53.5861 7.175 53.4472 7.10557C53.3084 7.03615 53.1552 7 53 7H25V6C25 5.73478 24.8946 5.48043 24.7071 5.29289C24.5196 5.10536 24.2652 5 24 5H21V3H19V5H17V2H15V5H14.4143L12.7071 3.29288C12.6143 3.20002 12.504 3.12636 12.3827 3.07611C12.2614 3.02586 12.1313 3 12 3H9C8.73478 3 8.48043 3.10536 8.29289 3.29289C8.10536 3.48043 8 3.73478 8 4V16C8 16.2652 8.10536 16.5196 8.29289 16.7071C8.48043 16.8946 8.73478 17 9 17ZM52.5 9L54 11H25V9H52.5ZM15 7H23V13H15V7ZM10 5H11.5859L13 6.41425V13.5858L11.5859 15H10V5Z" fill="white"/>
<path d="M61 37H59V34H57V37H55V35H53V37H48C47.7348 37 47.4804 37.1054 47.2929 37.2929C47.1054 37.4804 47 37.7348 47 38V41H41V43H48C48.2652 43 48.5196 42.8946 48.7071 42.7071C48.8946 42.5196 49 42.2652 49 42V39H60V43.5012C59.9983 45.0953 59.666 46.6717 59.0241 48.1308C58.3822 49.59 57.4447 50.9001 56.2707 51.9785L52.6875 55.2625L54.0394 56.7375L57.6224 53.4532C59.0005 52.1872 60.101 50.6491 60.8545 48.9362C61.608 47.2232 61.998 45.3726 62 43.5012V38C62 37.7348 61.8946 37.4804 61.7071 37.2929C61.5196 37.1054 61.2652 37 61 37Z" fill="white"/>
</svg>
