<svg width="64" height="64" viewBox="0 0 64 64" fill="none" xmlns="http://www.w3.org/2000/svg">
<path d="M15.9375 3.9375H10.9375C4.90674 3.9375 0 8.84424 0 14.875V56.125C0 58.71 2.10254 60.8125 4.6875 60.8125H22.1875C24.7725 60.8125 26.875 58.71 26.875 56.125V14.875C26.875 8.84424 21.9683 3.9375 15.9375 3.9375ZM9.9126 5.87207C9.35107 10.0166 6.0791 13.2886 1.93457 13.8501C2.40723 9.67041 5.73291 6.34473 9.9126 5.87207ZM1.875 30.375C1.875 28.666 2.24805 27.0425 2.9165 25.5815L5.38135 29.0889C5.13916 29.5039 5 29.9858 5 30.5V44.25C5 44.6777 5.09668 45.0835 5.26807 45.4468L2.40723 49.5186C2.07275 49.0557 1.875 48.4883 1.875 47.875V30.375ZM7.8125 47.0625H19.0625C19.4912 47.0625 19.8975 46.9658 20.2612 46.7935L22.9277 50.5879C22.6919 50.6523 22.4438 50.6875 22.1875 50.6875H4.6875C4.43115 50.6875 4.18311 50.6523 3.94727 50.5879L6.61377 46.7935C6.97754 46.9658 7.38379 47.0625 7.8125 47.0625ZM6.875 44.25V30.5C6.875 29.9829 7.29541 29.5625 7.8125 29.5625H19.0625C19.5796 29.5625 20 29.9829 20 30.5V44.25C20 44.7671 19.5796 45.1875 19.0625 45.1875H7.8125C7.29541 45.1875 6.875 44.7671 6.875 44.25ZM20.0586 27.8701C19.7485 27.7524 19.4131 27.6875 19.0625 27.6875H7.8125C7.46191 27.6875 7.12646 27.7524 6.81641 27.8701L3.94434 23.7827C6.03467 20.7808 9.51025 18.8125 13.4375 18.8125C17.3647 18.8125 20.8403 20.7808 22.9307 23.7827L20.0586 27.8701ZM25 56.125C25 57.6758 23.7383 58.9375 22.1875 58.9375H4.6875C3.13672 58.9375 1.875 57.6758 1.875 56.125V51.6226C2.65918 52.2124 3.63281 52.5625 4.6875 52.5625H22.1875C23.2422 52.5625 24.2158 52.2124 25 51.6226V56.125ZM25 47.875C25 48.4883 24.8022 49.0557 24.4678 49.5181L21.6069 45.4468C21.7783 45.0835 21.875 44.6777 21.875 44.25V30.5C21.875 29.9858 21.7358 29.5039 21.4937 29.0889L23.9585 25.5815C24.627 27.0425 25 28.666 25 30.375V47.875ZM25 23.5361C22.6567 19.5894 18.3511 16.9375 13.4375 16.9375C8.52393 16.9375 4.21826 19.5894 1.875 23.5361V15.7446C7.10498 15.1851 11.2476 11.0425 11.8076 5.8125H15.4419C15.708 8.28271 16.7832 10.5928 18.5264 12.395C20.27 14.1982 22.543 15.3501 25 15.6978V23.5361ZM17.3467 5.92285C21.3237 6.54639 24.4487 9.76611 24.9326 13.7871C21.0112 13.0781 17.917 9.87012 17.3467 5.92285Z" fill="white"/>
<path d="M53.0625 3.9375H48.0625C42.0317 3.9375 37.125 8.84424 37.125 14.875V56.125C37.125 58.71 39.2275 60.8125 41.8125 60.8125H59.3125C61.8975 60.8125 64 58.71 64 56.125V14.875C64 8.84424 59.0933 3.9375 53.0625 3.9375ZM62.0576 13.7871C58.1362 13.0781 55.042 9.87012 54.4717 5.92285C58.4487 6.54639 61.5737 9.76611 62.0576 13.7871ZM47.0376 5.87207C46.4761 10.0166 43.2041 13.2886 39.0596 13.8501C39.5322 9.67041 42.8579 6.34473 47.0376 5.87207ZM39 30.375C39 28.666 39.373 27.0425 40.0415 25.5815L42.5063 29.0889C42.2642 29.5039 42.125 29.9858 42.125 30.5V44.25C42.125 44.6777 42.2217 45.0835 42.3931 45.4468L39.5322 49.5186C39.1978 49.0557 39 48.4883 39 47.875V30.375ZM44.9375 47.0625H56.1875C56.6162 47.0625 57.0225 46.9658 57.3862 46.7935L60.0527 50.5879C59.8169 50.6523 59.5688 50.6875 59.3125 50.6875H41.8125C41.5562 50.6875 41.3081 50.6523 41.0723 50.5879L43.7388 46.7935C44.1025 46.9658 44.5088 47.0625 44.9375 47.0625ZM44 44.25V30.5C44 29.9829 44.4204 29.5625 44.9375 29.5625H56.1875C56.7046 29.5625 57.125 29.9829 57.125 30.5V44.25C57.125 44.7671 56.7046 45.1875 56.1875 45.1875H44.9375C44.4204 45.1875 44 44.7671 44 44.25ZM57.1836 27.8701C56.8735 27.7524 56.5381 27.6875 56.1875 27.6875H44.9375C44.5869 27.6875 44.2515 27.7524 43.9414 27.8701L41.0693 23.7827C43.1597 20.7808 46.6353 18.8125 50.5625 18.8125C54.4897 18.8125 57.9653 20.7808 60.0557 23.7827L57.1836 27.8701ZM62.125 56.125C62.125 57.6758 60.8633 58.9375 59.3125 58.9375H41.8125C40.2617 58.9375 39 57.6758 39 56.125V51.6226C39.7842 52.2124 40.7578 52.5625 41.8125 52.5625H59.3125C60.3672 52.5625 61.3408 52.2124 62.125 51.6226V56.125ZM62.125 47.875C62.125 48.4883 61.9272 49.0557 61.5928 49.5181L58.7319 45.4468C58.9033 45.0835 59 44.6777 59 44.25V30.5C59 29.9858 58.8608 29.5039 58.6187 29.0889L61.0835 25.5815C61.752 27.0425 62.125 28.666 62.125 30.375V47.875ZM62.125 23.5361C59.7817 19.5894 55.4761 16.9375 50.5625 16.9375C45.6489 16.9375 41.3433 19.5894 39 23.5361V15.7446C44.23 15.1851 48.3726 11.0425 48.9326 5.8125H52.5669C52.833 8.28271 53.9082 10.5928 55.6514 12.395C57.395 14.1982 59.668 15.3501 62.125 15.6978V23.5361Z" fill="white"/>
<path d="M31.125 62.125H33V64H31.125V62.125Z" fill="white"/>
<path d="M31.125 3.75H33V60.25H31.125V3.75Z" fill="white"/>
<path d="M31.125 0H33V1.875H31.125V0Z" fill="white"/>
<path d="M3.6875 55.1875H5.5625V57.0625H3.6875V55.1875Z" fill="white"/>
<path d="M21.3125 55.1875H23.1875V57.0625H21.3125V55.1875Z" fill="white"/>
<path d="M41.0625 55.1875H42.9375V57.0625H41.0625V55.1875Z" fill="white"/>
<path d="M58.6875 55.1875H60.5625V57.0625H58.6875V55.1875Z" fill="white"/>
</svg>
