<svg width="64" height="64" viewBox="0 0 64 64" fill="none" xmlns="http://www.w3.org/2000/svg">
<g clip-path="url(#clip0)">
<path d="M63.9925 41.2902C63.9127 39.86 63.2073 38.5501 62.0568 37.6966C60.1955 36.3153 57.6125 36.4593 55.9158 38.0393L45.5959 47.6502C45.6588 45.5357 44.2689 43.6695 42.1873 43.1414L29.5838 39.9425C27.3735 39.3813 25.0593 39.4571 22.8903 40.1613L14.1774 42.9901V40.483C14.1774 39.7927 13.6176 39.2331 12.9275 39.2331H1.24988C0.559626 39.2331 0 39.7928 0 40.483V62.7477C0 63.4379 0.559751 63.9975 1.24988 63.9975H12.9276C13.6179 63.9975 14.1775 63.4378 14.1775 62.7477V45.6185L23.6623 42.5391C25.3819 41.9806 27.2169 41.9209 28.9689 42.3654L41.5726 45.5642C42.5514 45.8127 43.1892 46.7225 43.0888 47.7277C42.9851 48.767 42.1191 49.5509 41.0746 49.5509H32.2893C31.599 49.5509 31.0394 50.1106 31.0394 50.8007C31.0394 51.491 31.5992 52.0506 32.2893 52.0506H34.9821C35.0291 52.056 35.0767 52.0594 35.1252 52.0594H41.3238C43.3913 52.0594 45.3632 51.2833 46.8764 49.8742L57.6198 39.8687C58.4342 39.1102 59.6741 39.0412 60.5678 39.7042C61.1201 40.1138 61.4586 40.7426 61.4968 41.4292C61.5352 42.1159 61.2683 42.7782 60.7651 43.2469L45.9651 57.0244C44.9442 57.9746 43.6137 58.498 42.2191 58.498H14.1775C13.4873 58.498 12.9276 59.0578 12.9276 59.7479C12.9276 60.4381 13.4874 60.9978 14.1775 60.9978H42.2193C44.2481 60.9978 46.1833 60.2364 47.6686 58.854L62.4682 45.0765C63.5166 44.1005 64.0722 42.7205 63.9925 41.2902ZM11.6778 61.4978H2.49975V41.733H11.6776L11.6778 61.4978Z" fill="white"/>
<path d="M18.6898 58.8643C18.4561 58.6317 18.1348 58.498 17.8062 58.498C17.4761 58.498 17.1549 58.6317 16.9213 58.8643C16.6888 59.0968 16.5551 59.4193 16.5551 59.7479C16.5551 60.0765 16.6887 60.3992 16.9213 60.6314C17.1551 60.8639 17.4762 60.9978 17.8062 60.9978C18.1349 60.9978 18.4562 60.864 18.6898 60.6314C18.9222 60.399 19.0561 60.0765 19.0561 59.7479C19.0561 59.4193 18.9223 59.0968 18.6898 58.8643Z" fill="white"/>
<path d="M7.97204 57.5733C7.74066 57.3408 7.41816 57.207 7.08954 57.207C6.75954 57.207 6.43704 57.3395 6.20466 57.5733C5.97229 57.8058 5.83966 58.1272 5.83966 58.4569C5.83966 58.7857 5.97229 59.1082 6.20466 59.3405C6.43841 59.5729 6.75966 59.7068 7.08954 59.7068C7.41829 59.7068 7.73954 59.573 7.97204 59.3405C8.20567 59.108 8.33942 58.7855 8.33942 58.4569C8.33942 58.1269 8.20567 57.8058 7.97204 57.5733Z" fill="white"/>
<path d="M31.9976 0.00244141C25.7948 0.00244141 20.7484 5.04883 20.7484 11.2516C20.7484 13.3192 22.4305 15.0013 24.4982 15.0013C26.5658 15.0013 28.2479 13.3192 28.2479 11.2516C28.2479 9.18396 29.9301 7.50183 31.9977 7.50183C34.0653 7.50183 35.7474 9.18396 35.7474 11.2516C35.7474 13.3192 34.0653 15.0013 31.9977 15.0013C29.9301 15.0013 28.2479 16.6835 28.2479 18.7511V24.1257C28.2479 26.1934 29.9301 27.8755 31.9977 27.8755C34.0653 27.8755 35.7474 26.1934 35.7474 24.1257V21.8587C40.2087 20.284 43.2468 16.053 43.2468 11.2516C43.2467 5.0487 38.2003 0.00244141 31.9976 0.00244141ZM34.1848 19.7242C33.6329 19.8667 33.2476 20.3646 33.2476 20.9344V24.1255C33.2476 24.8147 32.6868 25.3754 31.9977 25.3754C31.3084 25.3754 30.7478 24.8146 30.7478 24.1255V18.7509C30.7478 18.0616 31.3086 17.501 31.9977 17.501C35.4437 17.501 38.2472 14.6975 38.2472 11.2515C38.2472 7.80546 35.4437 5.00195 31.9977 5.00195C28.5517 5.00195 25.7482 7.80546 25.7482 11.2515C25.7482 11.9407 25.1874 12.5013 24.4983 12.5013C23.809 12.5013 23.2484 11.9406 23.2484 11.2515C23.2484 6.42708 27.1733 2.50207 31.9978 2.50207C36.8223 2.50207 40.7472 6.42708 40.7472 11.2515C40.747 15.2421 38.0484 18.7262 34.1848 19.7242Z" fill="white"/>
<path d="M34.6499 31.8659C33.9529 31.1669 32.9862 30.7661 31.9976 30.7661C31.0091 30.7661 30.0422 31.167 29.3476 31.8635C28.6487 32.5605 28.2479 33.5272 28.2479 34.5158C28.2479 35.5043 28.6488 36.4711 29.3463 37.1669C30.0446 37.8651 31.0108 38.2654 31.9976 38.2654C32.9844 38.2654 33.9508 37.8649 34.6487 37.1669C35.3469 36.4686 35.7472 35.5024 35.7472 34.5158C35.7473 33.5291 35.3469 32.5627 34.6499 31.8659ZM32.8808 35.3994C32.6516 35.6288 32.3212 35.7658 31.9976 35.7658C31.6738 35.7658 31.3433 35.6288 31.1128 35.3983C30.8842 35.1703 30.7477 34.8403 30.7477 34.5159C30.7477 34.1865 30.8807 33.8649 31.1151 33.6312C31.3432 33.4026 31.6732 33.266 31.9976 33.266C32.3221 33.266 32.6518 33.4025 32.8809 33.6325C33.1104 33.8617 33.2474 34.1921 33.2474 34.5159C33.2474 34.8396 33.1104 35.1699 32.8808 35.3994Z" fill="white"/>
<path d="M7.08887 44.311C6.39861 44.311 5.83899 44.8708 5.83899 45.5609V53.4981C5.83899 54.1883 6.39861 54.7479 7.08887 54.7479C7.77912 54.7479 8.33874 54.1882 8.33874 53.4981V45.5609C8.33874 44.8708 7.77899 44.311 7.08887 44.311Z" fill="white"/>
</g>
<defs>
<clipPath id="clip0">
<rect width="64" height="64" fill="white"/>
</clipPath>
</defs>
</svg>
