<svg width="64" height="64" viewBox="0 0 64 64" fill="none" xmlns="http://www.w3.org/2000/svg">
<path d="M24.407 41.0688L14.3411 51.1348C14.177 51.2989 14.0848 51.5215 14.0848 51.7535C14.0848 51.9856 14.177 52.2082 14.3411 52.3723C14.5052 52.5364 14.7278 52.6286 14.9599 52.6286C15.192 52.6286 15.4145 52.5364 15.5786 52.3723L25.6446 42.3063C25.7259 42.225 25.7903 42.1286 25.8343 42.0224C25.8783 41.9162 25.9009 41.8025 25.9009 41.6875C25.9009 41.5726 25.8783 41.4588 25.8343 41.3527C25.7903 41.2465 25.7259 41.15 25.6446 41.0688C25.5634 40.9875 25.4669 40.9231 25.3607 40.8791C25.2546 40.8351 25.1408 40.8125 25.0259 40.8125C24.911 40.8125 24.7972 40.8351 24.691 40.8791C24.5849 40.9231 24.4884 40.9875 24.4071 41.0688H24.407Z" fill="white"/>
<path d="M22.9313 38.3554C22.85 38.2742 22.7535 38.2097 22.6474 38.1657C22.5412 38.1218 22.4274 38.0991 22.3125 38.0991C22.1976 38.0991 22.0838 38.1218 21.9776 38.1657C21.8715 38.2097 21.775 38.2742 21.6938 38.3554L11.6279 48.4214C11.5466 48.5027 11.4822 48.5992 11.4382 48.7053C11.3942 48.8115 11.3716 48.9253 11.3716 49.0402C11.3716 49.1551 11.3942 49.2689 11.4382 49.375C11.4822 49.4812 11.5466 49.5777 11.6279 49.6589C11.7091 49.7402 11.8056 49.8046 11.9118 49.8486C12.0179 49.8926 12.1317 49.9152 12.2466 49.9152C12.3615 49.9152 12.4753 49.8926 12.5815 49.8486C12.6877 49.8046 12.7841 49.7402 12.8654 49.6589L22.9314 39.5931C23.0126 39.5118 23.0771 39.4153 23.1211 39.3091C23.1651 39.203 23.1877 39.0891 23.1877 38.9742C23.1877 38.8593 23.165 38.7455 23.121 38.6393C23.077 38.5331 23.0125 38.4367 22.9313 38.3554Z" fill="white"/>
<path d="M22.3633 29.2991L24.1633 31.0991L22.0668 32.2464C21.9938 32.2863 21.9269 32.3364 21.8681 32.3952L7.63876 46.6239C6.67097 47.5938 6.12746 48.9081 6.12746 50.2783C6.12746 51.6485 6.67097 52.9628 7.63876 53.9327L10.0674 56.3614C11.0374 57.3291 12.3516 57.8726 13.7218 57.8726C15.092 57.8726 16.4063 57.3291 17.3763 56.3614L31.6053 42.1324C31.6641 42.0736 31.7142 42.0067 31.7541 41.9337L32.9014 39.8372L50.2299 57.1657C51.1511 58.0785 52.3964 58.5893 53.6932 58.5863C54.9901 58.5833 56.2329 58.0668 57.15 57.1498C58.067 56.2328 58.5834 54.9899 58.5864 53.693C58.5894 52.3962 58.0786 51.1509 57.1658 50.2297L38.3185 31.3825L39.9901 29.7109C40.0714 29.6296 40.1359 29.5331 40.1798 29.427C40.2238 29.3208 40.2464 29.207 40.2464 29.0921C40.2464 28.9772 40.2238 28.8634 40.1798 28.7572C40.1359 28.6511 40.0714 28.5546 39.9901 28.4734L39.6104 28.0936L50.9479 16.7561L53.82 15.7376C54.0145 15.6685 54.1783 15.5329 54.2825 15.3547L57.7551 9.41549C57.8528 9.2485 57.8923 9.05386 57.8676 8.86201C57.8429 8.67016 57.7553 8.4919 57.6185 8.35512L55.6455 6.38137C55.5087 6.24458 55.3305 6.15699 55.1386 6.13227C54.9468 6.10755 54.7521 6.1471 54.5851 6.24474L48.6459 9.71737C48.4677 9.82155 48.3321 9.98537 48.263 10.1799L47.2439 13.052L35.9064 24.3895L35.5266 24.0097C35.4454 23.9285 35.3489 23.864 35.2428 23.82C35.1366 23.7761 35.0228 23.7534 34.9079 23.7534C34.793 23.7534 34.6792 23.7761 34.573 23.82C34.4668 23.864 34.3704 23.9285 34.2891 24.0097L32.6175 25.6816L29.2991 22.3626C30.1708 20.1676 30.3971 17.7692 29.9514 15.4499C29.5057 13.1306 28.4064 10.9869 26.7832 9.27144C25.1599 7.55594 23.0802 6.34002 20.7891 5.7669C18.4979 5.19377 16.0907 5.28731 13.8509 6.03649C13.7095 6.08372 13.5824 6.1663 13.4819 6.2764C13.3813 6.38651 13.3106 6.52048 13.2764 6.6656C13.2422 6.81073 13.2456 6.96219 13.2863 7.10562C13.3271 7.24904 13.4038 7.37968 13.5093 7.48512L17.8468 11.8226L16.85 16.7892L11.675 17.7039L7.49463 13.4942C7.38936 13.3883 7.25877 13.311 7.11525 13.2698C6.97173 13.2285 6.82004 13.2245 6.67458 13.2584C6.52912 13.2922 6.39471 13.3626 6.28411 13.4629C6.17351 13.5633 6.09039 13.6902 6.04263 13.8317C5.28919 16.072 5.19214 18.4811 5.76292 20.7747C6.33371 23.0683 7.54852 25.1509 9.26407 26.7768C10.9796 28.4026 13.1244 29.504 15.4453 29.9509C17.7663 30.3978 20.1666 30.1717 22.3633 29.2991ZM31.9218 37.9821C31.9208 37.9841 31.9196 37.986 31.9186 37.9879L30.2791 40.9836L16.1388 55.124C15.4972 55.7641 14.628 56.1236 13.7218 56.1236C12.8155 56.1236 11.9463 55.7641 11.3048 55.124L8.87613 52.6954C8.23611 52.0538 7.87667 51.1846 7.87667 50.2784C7.87667 49.3721 8.23611 48.5029 8.87613 47.8614L23.0165 33.721L26.0125 32.0814L26.0176 32.0786L28.7176 30.601L33.399 35.2824L31.9218 37.9821ZM38.6116 34.1501L55.9284 51.4672C56.5143 52.06 56.8419 52.8605 56.8394 53.694C56.837 54.5275 56.5049 55.3261 55.9155 55.9155C55.3261 56.5048 54.5275 56.837 53.694 56.8394C52.8605 56.8418 52.06 56.5142 51.4673 55.9282L33.7768 38.2376L34.7421 36.4737C34.988 36.6074 35.254 36.7003 35.5296 36.7487L49.35 50.5692C49.4313 50.6505 49.5277 50.715 49.6339 50.7589C49.7401 50.8029 49.8538 50.8255 49.9688 50.8255C50.0837 50.8255 50.1975 50.8029 50.3036 50.7589C50.4098 50.715 50.5063 50.6505 50.5875 50.5692C50.6688 50.488 50.7332 50.3915 50.7772 50.2854C50.8212 50.1792 50.8438 50.0654 50.8438 49.9505C50.8438 49.8356 50.8212 49.7218 50.7772 49.6156C50.7332 49.5095 50.6688 49.413 50.5875 49.3317L37.5394 36.284C37.6479 36.2055 37.7503 36.1189 37.8456 36.0249C38.0896 35.7822 38.283 35.4936 38.4147 35.1757C38.5464 34.8578 38.6137 34.517 38.6128 34.1729C38.6125 34.1654 38.6118 34.158 38.6116 34.1501ZM48.621 14.1501C48.713 14.0581 48.7834 13.9467 48.827 13.824L49.8053 11.0669L54.8855 8.09637L55.9038 9.11462L52.9334 14.1949L50.1763 15.1731C50.0536 15.2167 49.9422 15.2871 49.8501 15.3791L38.373 26.8562L37.1439 25.6271L48.621 14.1501ZM34.9085 25.8662L38.1345 29.0922L36.7683 30.4586L33.5421 27.2325L34.9085 25.8662ZM36.6085 33.5584C36.6895 33.639 36.7538 33.7348 36.7978 33.8404C36.8417 33.9459 36.8644 34.059 36.8645 34.1733C36.8646 34.2877 36.8422 34.4009 36.7985 34.5065C36.7549 34.6121 36.6908 34.7081 36.6099 34.7889C36.5291 34.8698 36.4331 34.9338 36.3275 34.9775C36.2219 35.0212 36.1087 35.0436 35.9944 35.0435C35.8801 35.0434 35.7669 35.0207 35.6614 34.9767C35.5558 34.9328 35.46 34.8685 35.3794 34.7875L29.2131 28.6212C29.1321 28.5406 29.0678 28.4448 29.0239 28.3392C28.9799 28.2337 28.9573 28.1206 28.9571 28.0063C28.957 27.892 28.9794 27.7787 29.0231 27.6731C29.0668 27.5675 29.1309 27.4715 29.2117 27.3907C29.2925 27.3099 29.3885 27.2458 29.4941 27.2021C29.5998 27.1584 29.713 27.136 29.8273 27.1361C29.9416 27.1362 30.0547 27.1589 30.1603 27.2029C30.2658 27.2468 30.3616 27.3111 30.4423 27.3921L36.6085 33.5584ZM7.32888 15.8106L10.7564 19.2617C10.8559 19.3619 10.9782 19.4366 11.1128 19.4792C11.2475 19.5219 11.3904 19.5313 11.5295 19.5067L17.7433 18.4086C17.9166 18.378 18.0767 18.2958 18.2025 18.1727C18.3284 18.0497 18.4143 17.8916 18.4489 17.719L19.6545 11.7071C19.6829 11.5658 19.6759 11.4197 19.6341 11.2817C19.5924 11.1438 19.5173 11.0183 19.4154 10.9164L15.825 7.32637C17.5252 7.00294 19.2788 7.10163 20.932 7.61378C22.5852 8.12593 24.0875 9.0359 25.3071 10.2639C26.8348 11.8002 27.8593 13.7646 28.2449 15.8965C28.6305 18.0285 28.3589 20.2273 27.4661 22.2014C27.3921 22.3636 27.3695 22.5446 27.4012 22.7201C27.4329 22.8955 27.5174 23.0571 27.6435 23.1832L29.85 25.3885C29.8426 25.3885 29.8353 25.3874 29.8278 25.3874C29.4837 25.3864 29.1428 25.4538 28.8249 25.5854C28.507 25.7171 28.2184 25.9105 27.9758 26.1545C27.8818 26.2499 27.7952 26.3523 27.7166 26.4607L26.8111 25.5552C26.7299 25.474 26.6334 25.4095 26.5272 25.3656C26.4211 25.3216 26.3073 25.2989 26.1924 25.2989C26.0775 25.2989 25.9637 25.3216 25.8575 25.3656C25.7514 25.4095 25.6549 25.474 25.5736 25.5552C25.4924 25.6365 25.4279 25.733 25.3839 25.8391C25.34 25.9453 25.3173 26.0591 25.3173 26.174C25.3173 26.2889 25.34 26.4027 25.3839 26.5089C25.4279 26.615 25.4924 26.7115 25.5736 26.7927L27.2513 28.4702C27.2997 28.7459 27.3926 29.0118 27.5263 29.2577L25.7625 30.2234L23.1829 27.6439C23.0568 27.5178 22.8952 27.4332 22.7197 27.4015C22.5442 27.3698 22.3632 27.3925 22.201 27.4665C20.2269 28.3592 18.0281 28.6308 15.8962 28.2452C13.7642 27.8596 11.7998 26.835 10.2635 25.3074C9.03345 24.0862 8.12246 22.5813 7.61073 20.9253C7.09899 19.2693 7.0022 17.5128 7.32888 15.8106Z" fill="white"/>
</svg>
