<svg width="64" height="64" viewBox="0 0 64 64" fill="none" xmlns="http://www.w3.org/2000/svg">
<g clip-path="url(#clip0)">
<path d="M63.1709 19.9758L53.4144 10.2699C52.3139 9.17507 50.5233 9.17507 49.4226 10.2699L38.8174 20.8202C38.4391 21.1964 38.04 21.5447 37.6215 21.8648C37.4363 21.1296 37.0316 20.4568 36.4479 19.9416C35.9281 19.4828 35.4066 19.2502 34.8979 19.2502H29.1129C27.6416 19.2502 26.1978 18.9886 24.8213 18.4724C23.191 17.8613 21.74 16.9303 20.5084 15.7049L14.5776 9.80495C13.4771 8.71032 11.6865 8.71007 10.5858 9.80495L5.78025 14.5856C5.41313 14.9507 5.41163 15.5443 5.77688 15.9113C6.14188 16.2783 6.7355 16.2799 7.10263 15.9147L11.9081 11.1341C12.2796 10.7647 12.8839 10.7647 13.2551 11.1341L19.1859 17.0341C20.6075 18.4483 22.2821 19.5229 24.163 20.2279C25.7506 20.8232 27.4159 21.1249 29.1128 21.1249H34.8791C34.9061 21.1338 35.0143 21.1768 35.207 21.3471C35.6275 21.7182 35.866 22.2471 35.8613 22.7979C35.8608 22.8582 35.8665 22.9171 35.8769 22.9743C35.435 23.2049 34.9775 23.4101 34.5044 23.5873C33.1278 24.1033 31.6839 24.3651 30.2128 24.3651H24.4276C24.0585 24.3651 23.667 24.4846 23.264 24.7202C22.2494 25.3133 21.5944 26.3718 21.5118 27.5517C21.4276 28.7524 21.9405 29.9143 22.8834 30.6597C23.4806 31.1318 24.1191 31.3712 24.7809 31.3712H28.2108L24.9341 34.6308L23.9276 33.6296C23.5605 33.2643 22.9669 33.2658 22.6019 33.6329C22.2368 34.0001 22.2383 34.5937 22.6053 34.9587L23.6049 35.9532L21.2921 38.2539L20.2856 37.2527C19.9185 36.8876 19.3249 36.8891 18.9598 37.2562C18.5946 37.6232 18.5961 38.2169 18.9633 38.5821L19.9629 39.5764L18.8414 40.6922C18.4115 41.1199 18.113 41.6349 17.9464 42.1821L10.618 34.8917C9.65625 33.9348 8.97125 32.7361 8.63688 31.4251L8.24738 29.8976C7.87475 28.4363 7.11163 27.1007 6.04038 26.0351L2.1515 22.1664C1.97313 21.9889 1.875 21.7534 1.875 21.5032C1.875 21.2529 1.97325 21.0174 2.1515 20.8399L7.10263 15.9147C7.46975 15.5496 7.47125 14.9561 7.106 14.5889C6.74088 14.2218 6.14725 14.2203 5.78025 14.5856L0.829125 19.5107C0.2945 20.0429 0 20.7504 0 21.5034C0 22.2563 0.2945 22.9639 0.829125 23.4958L4.718 27.3644C5.54938 28.1916 6.14163 29.2277 6.4305 30.3611L6.82 31.8886C7.23788 33.5276 8.09388 35.0258 9.29563 36.2212C9.29563 36.2212 18.6678 45.5578 18.7093 45.6022C19.1349 46.0568 19.6588 46.3832 20.2364 46.5612L19.602 47.1922C18.252 48.5353 18.1928 50.7378 19.4698 52.1019C20.1269 52.8038 21.0185 53.1998 21.98 53.2168C22.9401 53.2313 23.8469 52.8703 24.5278 52.1931L24.7625 51.9596C24.9293 52.4982 25.2265 52.9914 25.6383 53.4011C27.0085 54.7642 29.2376 54.7641 30.6078 53.4011L31.4611 52.5522C31.6279 53.0908 31.9251 53.5841 32.3369 53.9937C33.0219 54.6752 33.9218 55.0159 34.8216 55.0158C35.7215 55.0158 36.6214 54.6751 37.3064 53.9936L49.461 41.9018C49.8281 41.5367 49.8296 40.9431 49.4644 40.5761C49.0993 40.2089 48.5055 40.2074 48.1385 40.5727L35.9839 52.6643C35.343 53.3021 34.2999 53.3021 33.6591 52.6643C33.3503 52.3571 33.18 51.9488 33.18 51.5148C33.18 51.1372 33.3091 50.7792 33.5461 50.4901C33.5556 50.4814 33.5656 50.4734 33.5748 50.4643L40.2775 43.7964C40.6445 43.4313 40.6461 42.8377 40.2809 42.4707C39.9158 42.1036 39.3221 42.1019 38.9551 42.4673L32.4396 48.9489C32.4039 48.9754 32.3691 49.0039 32.3368 49.0362C32.3353 49.0377 32.3339 49.0391 32.3324 49.0406L29.2853 52.0718C28.6445 52.7094 27.6015 52.7096 26.9605 52.0718C26.6516 51.7644 26.4814 51.3562 26.4814 50.9223C26.4814 50.5461 26.6098 50.1892 26.8451 49.9007L36.6293 40.1673C36.9964 39.8022 36.9979 39.2086 36.6326 38.8416C36.2675 38.4744 35.6739 38.4729 35.3069 38.8382L25.7334 48.3619C25.7004 48.3871 25.6681 48.4137 25.638 48.4437L23.2051 50.8639C22.887 51.1803 22.4645 51.3489 22.013 51.3422C21.5629 51.3343 21.1458 51.1489 20.8383 50.8206C20.2466 50.1886 20.2851 49.1572 20.9241 48.5214L23.6725 45.7874C23.6841 45.7768 23.6963 45.7671 23.7076 45.7558L33.0115 36.5068C33.3788 36.1418 33.3805 35.5482 33.0154 35.1811C32.6504 34.8138 32.0568 34.8122 31.6896 35.1772L22.4806 44.3319C22.4686 44.3427 22.4563 44.3528 22.4446 44.3643L22.4416 44.3672C22.1239 44.6818 21.7 44.8496 21.2525 44.8426C20.8375 44.8352 20.4516 44.6756 20.1528 44.3934C20.1255 44.3569 20.0964 44.3216 20.0631 44.2884L19.9853 44.2109C19.493 43.5744 19.5603 42.6219 20.1636 42.0218L31.1436 31.0988C31.4128 30.8311 31.4939 30.4274 31.349 30.0766C31.2043 29.7257 30.862 29.4967 30.4824 29.4967H24.7808C24.5481 29.4967 24.3078 29.3961 24.046 29.1892C23.5826 28.8229 23.3406 28.2741 23.382 27.6832C23.4219 27.1136 23.7238 26.6237 24.2103 26.3393C24.3603 26.2516 24.4315 26.2408 24.4279 26.2406H30.2125C31.909 26.2406 33.5744 25.9388 35.1623 25.3436C37.0433 24.6383 38.7179 23.5638 40.1394 22.1496L50.7446 11.5993C51.1161 11.2298 51.7204 11.2298 52.0916 11.5993L61.8481 21.3052C62.0265 21.4826 62.1246 21.7181 62.1246 21.9683C62.1246 22.2186 62.0264 22.4541 61.8481 22.6316L53.2848 31.1506C52.2135 32.2163 51.4503 33.5519 51.0778 35.0132L50.6883 36.5406C50.354 37.8517 49.6689 39.0504 48.7071 40.0071L48.1385 40.5727C47.7715 40.9378 47.7701 41.5312 48.1353 41.8983C48.5005 42.2653 49.0941 42.2669 49.461 41.9018L50.0294 41.3364C51.231 40.1411 52.087 38.6429 52.505 37.0038L52.8945 35.4764C53.1835 34.3431 53.7756 33.3068 54.607 32.4797L63.1704 23.9607C63.7051 23.4288 63.9995 22.7212 63.9995 21.9682C64 21.2153 63.7055 20.5077 63.1709 19.9758Z" fill="white"/>
</g>
<defs>
<clipPath id="clip0">
<rect width="64" height="64" fill="white"/>
</clipPath>
</defs>
</svg>
