<svg width="32" height="22" viewBox="0 0 32 22" fill="none" xmlns="http://www.w3.org/2000/svg">
<path d="M31.8047 10.5288L21.8047 0.528824C21.5443 0.268387 21.1224 0.268387 20.862 0.528824C20.6016 0.789262 20.6016 1.21114 20.862 1.47151L29.724 10.3335H0.666687C0.298187 10.3335 0 10.6317 0 11.0002C0 11.3687 0.298187 11.6669 0.666687 11.6669H29.724L20.862 20.5288C20.6016 20.7893 20.6016 21.2111 20.862 21.4715C20.9922 21.6017 21.1628 21.6668 21.3334 21.6668C21.5039 21.6668 21.6745 21.6017 21.8048 21.4715L31.8048 11.4715C32.0651 11.2111 32.0651 10.7893 31.8047 10.5288Z" fill="white"/>
</svg>
